<svg width="104" height="119" viewBox="0 0 104 119" fill="none" xmlns="http://www.w3.org/2000/svg">
<mask id="path-1-inside-1_44_24" fill="white">
<path d="M45.901 34.0109C45.1755 33.2854 45.1755 32.1091 45.901 31.3835L48.5284 28.7562C49.2539 28.0307 50.4302 28.0307 51.1557 28.7562C51.8812 29.4817 51.8812 30.658 51.1557 31.3835L48.5284 34.0109C47.8028 34.7364 46.6265 34.7364 45.901 34.0109Z"/>
<path d="M36.2404 39.9823C35.5149 40.7078 35.5149 41.8841 36.2404 42.6096C36.9659 43.3351 38.1422 43.3351 38.8677 42.6096L41.4951 39.9823C42.2206 39.2567 42.2206 38.0804 41.4951 37.3549C40.7696 36.6294 39.5933 36.6294 38.8677 37.3549L36.2404 39.9823Z"/>
<path d="M47.3872 43.6979C46.6617 44.4234 46.6617 45.5997 47.3872 46.3252C48.1128 47.0507 49.2891 47.0507 50.0146 46.3252L52.6419 43.6979C53.3674 42.9724 53.3674 41.7961 52.6419 41.0705C51.9164 40.345 50.7401 40.345 50.0146 41.0705L47.3872 43.6979Z"/>
<path d="M58.5341 32.551C57.8086 33.2765 57.8086 34.4528 58.5341 35.1784C59.2596 35.9039 60.4359 35.9039 61.1614 35.1784L63.7888 32.551C64.5143 31.8255 64.5143 30.6492 63.7888 29.9237C63.0633 29.1982 61.887 29.1982 61.1614 29.9237L58.5341 32.551Z"/>
<path d="M69.681 38.894C68.9554 38.1685 68.9554 36.9922 69.681 36.2666L72.3083 33.6393C73.0338 32.9138 74.2101 32.9138 74.9356 33.6393C75.6612 34.3648 75.6612 35.5411 74.9356 36.2666L72.3083 38.894C71.5828 39.6195 70.4065 39.6195 69.681 38.894Z"/>
<path d="M77.1122 43.6979C76.3867 44.4234 76.3867 45.5997 77.1122 46.3252C77.8377 47.0507 79.014 47.0507 79.7395 46.3252L82.3669 43.6979C83.0924 42.9724 83.0924 41.7961 82.3669 41.0705C81.6414 40.345 80.4651 40.345 79.7395 41.0705L77.1122 43.6979Z"/>
<path d="M60.7635 47.4399C60.038 46.7144 60.038 45.5381 60.7635 44.8126L63.3908 42.1852C64.1164 41.4597 65.2927 41.4597 66.0182 42.1852C66.7437 42.9108 66.7437 44.0871 66.0182 44.8126L63.3908 47.4399C62.6653 48.1654 61.489 48.1654 60.7635 47.4399Z"/>
<path fill-rule="evenodd" clip-rule="evenodd" d="M24.9406 54.17C20.8373 54.0849 17.4895 50.629 18.6727 46.6991C19.2297 44.8493 19.9834 43.0383 20.9282 41.2869C23.0932 37.2737 26.2196 33.6513 30.1288 30.6265C34.0381 27.6017 38.6537 25.2337 43.7121 23.6578C48.7704 22.0818 54.1726 21.3288 59.61 21.4416C65.0474 21.5544 70.4137 22.5309 75.4023 24.3153C80.391 26.0997 84.9044 28.6571 88.6848 31.8415C92.4652 35.0258 95.4386 38.7747 97.4353 42.8742C97.7524 43.5252 98.0438 44.183 98.3094 44.8466C100.597 50.562 95.3321 55.6305 89.1772 55.5028L24.9406 54.17ZM22.2306 47.7703C22.7136 46.166 23.3698 44.5868 24.1984 43.051C26.0968 39.5319 28.869 36.2993 32.4026 33.5652C35.9373 30.8302 40.151 28.659 44.8173 27.2052C49.483 25.7516 54.4853 25.0517 59.5329 25.1564C64.5805 25.2611 69.5495 26.1679 74.1509 27.8138C78.7529 29.4599 82.8729 31.8041 86.2911 34.6833C89.7083 37.5616 92.344 40.9064 94.0948 44.5012C94.3729 45.0722 94.6279 45.6478 94.8598 46.2272C95.4166 47.6184 95.1118 48.8267 94.1687 49.8568C93.1371 50.9835 91.3329 51.8311 89.2542 51.788L25.0177 50.4552C23.9656 50.4334 23.1012 49.9758 22.6136 49.4217C22.1761 48.9246 22.0441 48.3898 22.2306 47.7703Z"/>
<path d="M24.1515 91.0324C20.0473 91.0324 16.7202 94.3595 16.7202 98.4636C16.7202 102.568 20.0473 105.895 24.1515 105.895H78.0279C79.054 105.895 79.8857 105.063 79.8857 104.037C79.8857 103.011 79.054 102.179 78.0279 102.179H24.1515C22.0994 102.179 20.4358 100.516 20.4358 98.4636C20.4358 96.4116 22.0994 94.748 24.1515 94.748H94.7482C96.8003 94.748 98.4638 96.4116 98.4638 98.4636C98.4638 100.516 96.8003 102.179 94.7482 102.179H87.317C86.2909 102.179 85.4592 103.011 85.4592 104.037C85.4592 105.063 86.2909 105.895 87.317 105.895H94.7482C98.8524 105.895 102.179 102.568 102.179 98.4636C102.179 94.3595 98.8524 91.0324 94.7482 91.0324H24.1515Z"/>
<path d="M19.8277 59.9328C20.97 60.9712 21.9067 61.3075 22.6652 61.3075C23.4237 61.3075 24.3605 60.9712 25.5027 59.9328C27.0852 58.4941 28.8733 57.5918 30.8396 57.5918C32.8059 57.5918 34.5939 58.4941 36.1765 59.9328C37.3187 60.9712 38.2555 61.3075 39.0139 61.3075C39.7724 61.3075 40.7092 60.9712 41.8514 59.9328C43.434 58.4941 45.222 57.5918 47.1883 57.5918C49.1546 57.5918 50.9426 58.4941 52.5252 59.9328C53.6674 60.9712 54.6042 61.3075 55.3627 61.3075C56.1211 61.3075 57.0579 60.9712 58.2001 59.9328C59.7827 58.4941 61.5707 57.5918 63.537 57.5918C65.5033 57.5918 67.2914 58.4941 68.8739 59.9328C70.0161 60.9712 70.9529 61.3075 71.7114 61.3075C72.4698 61.3075 73.4066 60.9712 74.5489 59.9328C76.1314 58.4941 77.9194 57.5918 79.8857 57.5918C81.8521 57.5918 83.6401 58.4941 85.2226 59.9328C86.3649 60.9712 87.3016 61.3075 88.0601 61.3075C88.8186 61.3075 89.7553 60.9712 90.8976 59.9328C92.4801 58.4941 94.2681 57.5918 96.2345 57.5918C98.2008 57.5918 99.9888 58.4941 101.571 59.9328C102.331 60.623 102.386 61.7979 101.696 62.5572C101.006 63.3164 99.8312 63.3723 99.0719 62.6821C97.9297 61.6437 96.9929 61.3075 96.2345 61.3075C95.476 61.3075 94.5392 61.6437 93.397 62.6821C91.8144 64.1208 90.0264 65.0231 88.0601 65.0231C86.0938 65.0231 84.3058 64.1208 82.7232 62.6821C81.581 61.6437 80.6442 61.3075 79.8857 61.3075C79.1273 61.3075 78.1905 61.6437 77.0483 62.6821C75.4657 64.1208 73.6777 65.0231 71.7114 65.0231C69.7451 65.0231 67.957 64.1208 66.3745 62.6821C65.2323 61.6437 64.2955 61.3075 63.537 61.3075C62.7786 61.3075 61.8418 61.6437 60.6995 62.6821C59.117 64.1208 57.329 65.0231 55.3627 65.0231C53.3963 65.0231 51.6083 64.1208 50.0258 62.6821C48.8835 61.6437 47.9468 61.3075 47.1883 61.3075C46.4298 61.3075 45.4931 61.6437 44.3508 62.6821C42.7683 64.1208 40.9803 65.0231 39.0139 65.0231C37.0476 65.0231 35.2596 64.1208 33.6771 62.6821C32.5348 61.6437 31.598 61.3075 30.8396 61.3075C30.0811 61.3075 29.1443 61.6437 28.0021 62.6821C26.4196 64.1208 24.6315 65.0231 22.6652 65.0231C20.6989 65.0231 18.9109 64.1208 17.3283 62.6821C16.5691 61.9919 16.5132 60.817 17.2034 60.0578C17.8936 59.2986 19.0685 59.2426 19.8277 59.9328Z"/>
<path d="M24.1515 74.3121C24.1515 73.2861 24.9832 72.4543 26.0093 72.4543H96.606C97.6321 72.4543 98.4638 71.6225 98.4638 70.5965C98.4638 69.5705 97.6321 68.7387 96.606 68.7387H26.0093C22.9312 68.7387 20.4358 71.234 20.4358 74.3121C20.4358 77.3902 22.9312 79.8856 26.0093 79.8856H92.8904C93.9164 79.8856 94.7482 80.7173 94.7482 81.7434C94.7482 82.7694 93.9164 83.6012 92.8904 83.6012H22.2937C21.2676 83.6012 20.4358 84.4329 20.4358 85.459C20.4358 86.485 21.2676 87.3168 22.2937 87.3168H92.8904C95.9685 87.3168 98.4638 84.8215 98.4638 81.7434C98.4638 78.6652 95.9685 76.1699 92.8904 76.1699H26.0093C24.9832 76.1699 24.1515 75.3382 24.1515 74.3121Z"/>
</mask>
<path d="M45.901 34.0109C45.1755 33.2854 45.1755 32.1091 45.901 31.3835L48.5284 28.7562C49.2539 28.0307 50.4302 28.0307 51.1557 28.7562C51.8812 29.4817 51.8812 30.658 51.1557 31.3835L48.5284 34.0109C47.8028 34.7364 46.6265 34.7364 45.901 34.0109Z" fill="#E43D12"/>
<path d="M36.2404 39.9823C35.5149 40.7078 35.5149 41.8841 36.2404 42.6096C36.9659 43.3351 38.1422 43.3351 38.8677 42.6096L41.4951 39.9823C42.2206 39.2567 42.2206 38.0804 41.4951 37.3549C40.7696 36.6294 39.5933 36.6294 38.8677 37.3549L36.2404 39.9823Z" fill="#E43D12"/>
<path d="M47.3872 43.6979C46.6617 44.4234 46.6617 45.5997 47.3872 46.3252C48.1128 47.0507 49.2891 47.0507 50.0146 46.3252L52.6419 43.6979C53.3674 42.9724 53.3674 41.7961 52.6419 41.0705C51.9164 40.345 50.7401 40.345 50.0146 41.0705L47.3872 43.6979Z" fill="#E43D12"/>
<path d="M58.5341 32.551C57.8086 33.2765 57.8086 34.4528 58.5341 35.1784C59.2596 35.9039 60.4359 35.9039 61.1614 35.1784L63.7888 32.551C64.5143 31.8255 64.5143 30.6492 63.7888 29.9237C63.0633 29.1982 61.887 29.1982 61.1614 29.9237L58.5341 32.551Z" fill="#E43D12"/>
<path d="M69.681 38.894C68.9554 38.1685 68.9554 36.9922 69.681 36.2666L72.3083 33.6393C73.0338 32.9138 74.2101 32.9138 74.9356 33.6393C75.6612 34.3648 75.6612 35.5411 74.9356 36.2666L72.3083 38.894C71.5828 39.6195 70.4065 39.6195 69.681 38.894Z" fill="#E43D12"/>
<path d="M77.1122 43.6979C76.3867 44.4234 76.3867 45.5997 77.1122 46.3252C77.8377 47.0507 79.014 47.0507 79.7395 46.3252L82.3669 43.6979C83.0924 42.9724 83.0924 41.7961 82.3669 41.0705C81.6414 40.345 80.4651 40.345 79.7395 41.0705L77.1122 43.6979Z" fill="#E43D12"/>
<path d="M60.7635 47.4399C60.038 46.7144 60.038 45.5381 60.7635 44.8126L63.3908 42.1852C64.1164 41.4597 65.2927 41.4597 66.0182 42.1852C66.7437 42.9108 66.7437 44.0871 66.0182 44.8126L63.3908 47.4399C62.6653 48.1654 61.489 48.1654 60.7635 47.4399Z" fill="#E43D12"/>
<path fill-rule="evenodd" clip-rule="evenodd" d="M24.9406 54.17C20.8373 54.0849 17.4895 50.629 18.6727 46.6991C19.2297 44.8493 19.9834 43.0383 20.9282 41.2869C23.0932 37.2737 26.2196 33.6513 30.1288 30.6265C34.0381 27.6017 38.6537 25.2337 43.7121 23.6578C48.7704 22.0818 54.1726 21.3288 59.61 21.4416C65.0474 21.5544 70.4137 22.5309 75.4023 24.3153C80.391 26.0997 84.9044 28.6571 88.6848 31.8415C92.4652 35.0258 95.4386 38.7747 97.4353 42.8742C97.7524 43.5252 98.0438 44.183 98.3094 44.8466C100.597 50.562 95.3321 55.6305 89.1772 55.5028L24.9406 54.17ZM22.2306 47.7703C22.7136 46.166 23.3698 44.5868 24.1984 43.051C26.0968 39.5319 28.869 36.2993 32.4026 33.5652C35.9373 30.8302 40.151 28.659 44.8173 27.2052C49.483 25.7516 54.4853 25.0517 59.5329 25.1564C64.5805 25.2611 69.5495 26.1679 74.1509 27.8138C78.7529 29.4599 82.8729 31.8041 86.2911 34.6833C89.7083 37.5616 92.344 40.9064 94.0948 44.5012C94.3729 45.0722 94.6279 45.6478 94.8598 46.2272C95.4166 47.6184 95.1118 48.8267 94.1687 49.8568C93.1371 50.9835 91.3329 51.8311 89.2542 51.788L25.0177 50.4552C23.9656 50.4334 23.1012 49.9758 22.6136 49.4217C22.1761 48.9246 22.0441 48.3898 22.2306 47.7703Z" fill="#E43D12"/>
<path d="M24.1515 91.0324C20.0473 91.0324 16.7202 94.3595 16.7202 98.4636C16.7202 102.568 20.0473 105.895 24.1515 105.895H78.0279C79.054 105.895 79.8857 105.063 79.8857 104.037C79.8857 103.011 79.054 102.179 78.0279 102.179H24.1515C22.0994 102.179 20.4358 100.516 20.4358 98.4636C20.4358 96.4116 22.0994 94.748 24.1515 94.748H94.7482C96.8003 94.748 98.4638 96.4116 98.4638 98.4636C98.4638 100.516 96.8003 102.179 94.7482 102.179H87.317C86.2909 102.179 85.4592 103.011 85.4592 104.037C85.4592 105.063 86.2909 105.895 87.317 105.895H94.7482C98.8524 105.895 102.179 102.568 102.179 98.4636C102.179 94.3595 98.8524 91.0324 94.7482 91.0324H24.1515Z" fill="#E43D12"/>
<path d="M19.8277 59.9328C20.97 60.9712 21.9067 61.3075 22.6652 61.3075C23.4237 61.3075 24.3605 60.9712 25.5027 59.9328C27.0852 58.4941 28.8733 57.5918 30.8396 57.5918C32.8059 57.5918 34.5939 58.4941 36.1765 59.9328C37.3187 60.9712 38.2555 61.3075 39.0139 61.3075C39.7724 61.3075 40.7092 60.9712 41.8514 59.9328C43.434 58.4941 45.222 57.5918 47.1883 57.5918C49.1546 57.5918 50.9426 58.4941 52.5252 59.9328C53.6674 60.9712 54.6042 61.3075 55.3627 61.3075C56.1211 61.3075 57.0579 60.9712 58.2001 59.9328C59.7827 58.4941 61.5707 57.5918 63.537 57.5918C65.5033 57.5918 67.2914 58.4941 68.8739 59.9328C70.0161 60.9712 70.9529 61.3075 71.7114 61.3075C72.4698 61.3075 73.4066 60.9712 74.5489 59.9328C76.1314 58.4941 77.9194 57.5918 79.8857 57.5918C81.8521 57.5918 83.6401 58.4941 85.2226 59.9328C86.3649 60.9712 87.3016 61.3075 88.0601 61.3075C88.8186 61.3075 89.7553 60.9712 90.8976 59.9328C92.4801 58.4941 94.2681 57.5918 96.2345 57.5918C98.2008 57.5918 99.9888 58.4941 101.571 59.9328C102.331 60.623 102.386 61.7979 101.696 62.5572C101.006 63.3164 99.8312 63.3723 99.0719 62.6821C97.9297 61.6437 96.9929 61.3075 96.2345 61.3075C95.476 61.3075 94.5392 61.6437 93.397 62.6821C91.8144 64.1208 90.0264 65.0231 88.0601 65.0231C86.0938 65.0231 84.3058 64.1208 82.7232 62.6821C81.581 61.6437 80.6442 61.3075 79.8857 61.3075C79.1273 61.3075 78.1905 61.6437 77.0483 62.6821C75.4657 64.1208 73.6777 65.0231 71.7114 65.0231C69.7451 65.0231 67.957 64.1208 66.3745 62.6821C65.2323 61.6437 64.2955 61.3075 63.537 61.3075C62.7786 61.3075 61.8418 61.6437 60.6995 62.6821C59.117 64.1208 57.329 65.0231 55.3627 65.0231C53.3963 65.0231 51.6083 64.1208 50.0258 62.6821C48.8835 61.6437 47.9468 61.3075 47.1883 61.3075C46.4298 61.3075 45.4931 61.6437 44.3508 62.6821C42.7683 64.1208 40.9803 65.0231 39.0139 65.0231C37.0476 65.0231 35.2596 64.1208 33.6771 62.6821C32.5348 61.6437 31.598 61.3075 30.8396 61.3075C30.0811 61.3075 29.1443 61.6437 28.0021 62.6821C26.4196 64.1208 24.6315 65.0231 22.6652 65.0231C20.6989 65.0231 18.9109 64.1208 17.3283 62.6821C16.5691 61.9919 16.5132 60.817 17.2034 60.0578C17.8936 59.2986 19.0685 59.2426 19.8277 59.9328Z" fill="#E43D12"/>
<path d="M24.1515 74.3121C24.1515 73.2861 24.9832 72.4543 26.0093 72.4543H96.606C97.6321 72.4543 98.4638 71.6225 98.4638 70.5965C98.4638 69.5705 97.6321 68.7387 96.606 68.7387H26.0093C22.9312 68.7387 20.4358 71.234 20.4358 74.3121C20.4358 77.3902 22.9312 79.8856 26.0093 79.8856H92.8904C93.9164 79.8856 94.7482 80.7173 94.7482 81.7434C94.7482 82.7694 93.9164 83.6012 92.8904 83.6012H22.2937C21.2676 83.6012 20.4358 84.4329 20.4358 85.459C20.4358 86.485 21.2676 87.3168 22.2937 87.3168H92.8904C95.9685 87.3168 98.4638 84.8215 98.4638 81.7434C98.4638 78.6652 95.9685 76.1699 92.8904 76.1699H26.0093C24.9832 76.1699 24.1515 75.3382 24.1515 74.3121Z" fill="#E43D12"/>
<path d="M45.901 34.0109C45.1755 33.2854 45.1755 32.1091 45.901 31.3835L48.5284 28.7562C49.2539 28.0307 50.4302 28.0307 51.1557 28.7562C51.8812 29.4817 51.8812 30.658 51.1557 31.3835L48.5284 34.0109C47.8028 34.7364 46.6265 34.7364 45.901 34.0109Z" stroke="#E43D12" stroke-width="7.43124" mask="url(#path-1-inside-1_44_24)"/>
<path d="M36.2404 39.9823C35.5149 40.7078 35.5149 41.8841 36.2404 42.6096C36.9659 43.3351 38.1422 43.3351 38.8677 42.6096L41.4951 39.9823C42.2206 39.2567 42.2206 38.0804 41.4951 37.3549C40.7696 36.6294 39.5933 36.6294 38.8677 37.3549L36.2404 39.9823Z" stroke="#E43D12" stroke-width="7.43124" mask="url(#path-1-inside-1_44_24)"/>
<path d="M47.3872 43.6979C46.6617 44.4234 46.6617 45.5997 47.3872 46.3252C48.1128 47.0507 49.2891 47.0507 50.0146 46.3252L52.6419 43.6979C53.3674 42.9724 53.3674 41.7961 52.6419 41.0705C51.9164 40.345 50.7401 40.345 50.0146 41.0705L47.3872 43.6979Z" stroke="#E43D12" stroke-width="7.43124" mask="url(#path-1-inside-1_44_24)"/>
<path d="M58.5341 32.551C57.8086 33.2765 57.8086 34.4528 58.5341 35.1784C59.2596 35.9039 60.4359 35.9039 61.1614 35.1784L63.7888 32.551C64.5143 31.8255 64.5143 30.6492 63.7888 29.9237C63.0633 29.1982 61.887 29.1982 61.1614 29.9237L58.5341 32.551Z" stroke="#E43D12" stroke-width="7.43124" mask="url(#path-1-inside-1_44_24)"/>
<path d="M69.681 38.894C68.9554 38.1685 68.9554 36.9922 69.681 36.2666L72.3083 33.6393C73.0338 32.9138 74.2101 32.9138 74.9356 33.6393C75.6612 34.3648 75.6612 35.5411 74.9356 36.2666L72.3083 38.894C71.5828 39.6195 70.4065 39.6195 69.681 38.894Z" stroke="#E43D12" stroke-width="7.43124" mask="url(#path-1-inside-1_44_24)"/>
<path d="M77.1122 43.6979C76.3867 44.4234 76.3867 45.5997 77.1122 46.3252C77.8377 47.0507 79.014 47.0507 79.7395 46.3252L82.3669 43.6979C83.0924 42.9724 83.0924 41.7961 82.3669 41.0705C81.6414 40.345 80.4651 40.345 79.7395 41.0705L77.1122 43.6979Z" stroke="#E43D12" stroke-width="7.43124" mask="url(#path-1-inside-1_44_24)"/>
<path d="M60.7635 47.4399C60.038 46.7144 60.038 45.5381 60.7635 44.8126L63.3908 42.1852C64.1164 41.4597 65.2927 41.4597 66.0182 42.1852C66.7437 42.9108 66.7437 44.0871 66.0182 44.8126L63.3908 47.4399C62.6653 48.1654 61.489 48.1654 60.7635 47.4399Z" stroke="#E43D12" stroke-width="7.43124" mask="url(#path-1-inside-1_44_24)"/>
<path fill-rule="evenodd" clip-rule="evenodd" d="M24.9406 54.17C20.8373 54.0849 17.4895 50.629 18.6727 46.6991C19.2297 44.8493 19.9834 43.0383 20.9282 41.2869C23.0932 37.2737 26.2196 33.6513 30.1288 30.6265C34.0381 27.6017 38.6537 25.2337 43.7121 23.6578C48.7704 22.0818 54.1726 21.3288 59.61 21.4416C65.0474 21.5544 70.4137 22.5309 75.4023 24.3153C80.391 26.0997 84.9044 28.6571 88.6848 31.8415C92.4652 35.0258 95.4386 38.7747 97.4353 42.8742C97.7524 43.5252 98.0438 44.183 98.3094 44.8466C100.597 50.562 95.3321 55.6305 89.1772 55.5028L24.9406 54.17ZM22.2306 47.7703C22.7136 46.166 23.3698 44.5868 24.1984 43.051C26.0968 39.5319 28.869 36.2993 32.4026 33.5652C35.9373 30.8302 40.151 28.659 44.8173 27.2052C49.483 25.7516 54.4853 25.0517 59.5329 25.1564C64.5805 25.2611 69.5495 26.1679 74.1509 27.8138C78.7529 29.4599 82.8729 31.8041 86.2911 34.6833C89.7083 37.5616 92.344 40.9064 94.0948 44.5012C94.3729 45.0722 94.6279 45.6478 94.8598 46.2272C95.4166 47.6184 95.1118 48.8267 94.1687 49.8568C93.1371 50.9835 91.3329 51.8311 89.2542 51.788L25.0177 50.4552C23.9656 50.4334 23.1012 49.9758 22.6136 49.4217C22.1761 48.9246 22.0441 48.3898 22.2306 47.7703Z" stroke="#E43D12" stroke-width="7.43124" mask="url(#path-1-inside-1_44_24)"/>
<path d="M24.1515 91.0324C20.0473 91.0324 16.7202 94.3595 16.7202 98.4636C16.7202 102.568 20.0473 105.895 24.1515 105.895H78.0279C79.054 105.895 79.8857 105.063 79.8857 104.037C79.8857 103.011 79.054 102.179 78.0279 102.179H24.1515C22.0994 102.179 20.4358 100.516 20.4358 98.4636C20.4358 96.4116 22.0994 94.748 24.1515 94.748H94.7482C96.8003 94.748 98.4638 96.4116 98.4638 98.4636C98.4638 100.516 96.8003 102.179 94.7482 102.179H87.317C86.2909 102.179 85.4592 103.011 85.4592 104.037C85.4592 105.063 86.2909 105.895 87.317 105.895H94.7482C98.8524 105.895 102.179 102.568 102.179 98.4636C102.179 94.3595 98.8524 91.0324 94.7482 91.0324H24.1515Z" stroke="#E43D12" stroke-width="7.43124" mask="url(#path-1-inside-1_44_24)"/>
<path d="M19.8277 59.9328C20.97 60.9712 21.9067 61.3075 22.6652 61.3075C23.4237 61.3075 24.3605 60.9712 25.5027 59.9328C27.0852 58.4941 28.8733 57.5918 30.8396 57.5918C32.8059 57.5918 34.5939 58.4941 36.1765 59.9328C37.3187 60.9712 38.2555 61.3075 39.0139 61.3075C39.7724 61.3075 40.7092 60.9712 41.8514 59.9328C43.434 58.4941 45.222 57.5918 47.1883 57.5918C49.1546 57.5918 50.9426 58.4941 52.5252 59.9328C53.6674 60.9712 54.6042 61.3075 55.3627 61.3075C56.1211 61.3075 57.0579 60.9712 58.2001 59.9328C59.7827 58.4941 61.5707 57.5918 63.537 57.5918C65.5033 57.5918 67.2914 58.4941 68.8739 59.9328C70.0161 60.9712 70.9529 61.3075 71.7114 61.3075C72.4698 61.3075 73.4066 60.9712 74.5489 59.9328C76.1314 58.4941 77.9194 57.5918 79.8857 57.5918C81.8521 57.5918 83.6401 58.4941 85.2226 59.9328C86.3649 60.9712 87.3016 61.3075 88.0601 61.3075C88.8186 61.3075 89.7553 60.9712 90.8976 59.9328C92.4801 58.4941 94.2681 57.5918 96.2345 57.5918C98.2008 57.5918 99.9888 58.4941 101.571 59.9328C102.331 60.623 102.386 61.7979 101.696 62.5572C101.006 63.3164 99.8312 63.3723 99.0719 62.6821C97.9297 61.6437 96.9929 61.3075 96.2345 61.3075C95.476 61.3075 94.5392 61.6437 93.397 62.6821C91.8144 64.1208 90.0264 65.0231 88.0601 65.0231C86.0938 65.0231 84.3058 64.1208 82.7232 62.6821C81.581 61.6437 80.6442 61.3075 79.8857 61.3075C79.1273 61.3075 78.1905 61.6437 77.0483 62.6821C75.4657 64.1208 73.6777 65.0231 71.7114 65.0231C69.7451 65.0231 67.957 64.1208 66.3745 62.6821C65.2323 61.6437 64.2955 61.3075 63.537 61.3075C62.7786 61.3075 61.8418 61.6437 60.6995 62.6821C59.117 64.1208 57.329 65.0231 55.3627 65.0231C53.3963 65.0231 51.6083 64.1208 50.0258 62.6821C48.8835 61.6437 47.9468 61.3075 47.1883 61.3075C46.4298 61.3075 45.4931 61.6437 44.3508 62.6821C42.7683 64.1208 40.9803 65.0231 39.0139 65.0231C37.0476 65.0231 35.2596 64.1208 33.6771 62.6821C32.5348 61.6437 31.598 61.3075 30.8396 61.3075C30.0811 61.3075 29.1443 61.6437 28.0021 62.6821C26.4196 64.1208 24.6315 65.0231 22.6652 65.0231C20.6989 65.0231 18.9109 64.1208 17.3283 62.6821C16.5691 61.9919 16.5132 60.817 17.2034 60.0578C17.8936 59.2986 19.0685 59.2426 19.8277 59.9328Z" stroke="#E43D12" stroke-width="7.43124" mask="url(#path-1-inside-1_44_24)"/>
<path d="M24.1515 74.3121C24.1515 73.2861 24.9832 72.4543 26.0093 72.4543H96.606C97.6321 72.4543 98.4638 71.6225 98.4638 70.5965C98.4638 69.5705 97.6321 68.7387 96.606 68.7387H26.0093C22.9312 68.7387 20.4358 71.234 20.4358 74.3121C20.4358 77.3902 22.9312 79.8856 26.0093 79.8856H92.8904C93.9164 79.8856 94.7482 80.7173 94.7482 81.7434C94.7482 82.7694 93.9164 83.6012 92.8904 83.6012H22.2937C21.2676 83.6012 20.4358 84.4329 20.4358 85.459C20.4358 86.485 21.2676 87.3168 22.2937 87.3168H92.8904C95.9685 87.3168 98.4638 84.8215 98.4638 81.7434C98.4638 78.6652 95.9685 76.1699 92.8904 76.1699H26.0093C24.9832 76.1699 24.1515 75.3382 24.1515 74.3121Z" stroke="#E43D12" stroke-width="7.43124" mask="url(#path-1-inside-1_44_24)"/>
</svg>
