<svg width="76" height="76" viewBox="0 0 76 76" fill="none" xmlns="http://www.w3.org/2000/svg">
<path d="M54.5224 56.4261C53.6672 57.2812 52.5074 57.7616 51.2981 57.7616C50.0887 57.7616 48.9289 57.2812 48.0738 56.4261L38 44.9121L27.9262 56.4223C27.504 56.8514 27.0011 57.1927 26.4464 57.4264C25.8916 57.6602 25.2961 57.7818 24.6942 57.7843C24.0922 57.7867 23.4958 57.67 22.9392 57.4407C22.3826 57.2115 21.8769 56.8743 21.4512 56.4487C21.0256 56.0231 20.6884 55.5173 20.4592 54.9607C20.23 54.4042 20.1132 53.8077 20.1157 53.2057C20.1181 52.6038 20.2397 52.0083 20.4735 51.4536C20.7072 50.8988 21.0485 50.3959 21.4776 49.9737L31.958 38.0037L21.4738 26.0261C21.0447 25.604 20.7034 25.101 20.4697 24.5463C20.2359 23.9916 20.1143 23.3961 20.1119 22.7941C20.1094 22.1922 20.2262 21.5957 20.4554 21.0391C20.6846 20.4825 21.0218 19.9768 21.4474 19.5512C21.8731 19.1255 22.3788 18.7884 22.9354 18.5591C23.492 18.3299 24.0884 18.2132 24.6904 18.2156C25.2923 18.2181 25.8878 18.3397 26.4426 18.5734C26.9973 18.8072 27.5002 19.1484 27.9224 19.5775L38 31.0953L48.0738 19.5775C48.4959 19.1484 48.9989 18.8072 49.5536 18.5734C50.1083 18.3397 50.7038 18.2181 51.3058 18.2156C51.9077 18.2132 52.5042 18.3299 53.0608 18.5591C53.6174 18.7884 54.1231 19.1255 54.5487 19.5512C54.9744 19.9768 55.3115 20.4825 55.5408 21.0391C55.77 21.5957 55.8867 22.1922 55.8843 22.7941C55.8818 23.3961 55.7602 23.9916 55.5265 24.5463C55.2927 25.101 54.9515 25.604 54.5224 26.0261L44.042 38.0037L54.5224 49.9737C54.9463 50.3972 55.2827 50.9002 55.5122 51.4537C55.7416 52.0073 55.8598 52.6007 55.8598 53.1999C55.8598 53.7992 55.7416 54.3926 55.5122 54.9461C55.2827 55.4997 54.9463 56.0026 54.5224 56.4261Z" fill="#C5C6C7"/>
</svg>
